<svg viewBox="0 0 24 24" fill="none" xmlns="http://www.w3.org/2000/svg"><circle cx="12" cy="12" r="3" stroke="currentColor" stroke-width="2"/><path d="M19.4 15C19.3 15.3 19.4 15.7 19.6 16L20.6 17.4C20.8 17.7 20.8 18.1 20.5 18.4L18.4 20.5C18.1 20.8 17.7 20.8 17.4 20.6L16 19.6C15.7 19.4 15.3 19.3 15 19.4L14.2 19.6C13.9 19.7 13.6 19.9 13.6 20.2V22H10.4V20.2C10.4 19.9 10.1 19.7 9.8 19.6L9 19.4C8.7 19.3 8.3 19.4 8 19.6L6.6 20.6C6.3 20.8 5.9 20.8 5.6 20.5L3.5 18.4C3.2 18.1 3.2 17.7 3.4 17.4L4.4 16C4.6 15.7 4.7 15.3 4.6 15L4.4 14.2C4.3 13.9 4.1 13.6 3.8 13.6H2V10.4H3.8C4.1 10.4 4.3 10.1 4.4 9.8L4.6 9C4.7 8.7 4.6 8.3 4.4 8L3.4 6.6C3.2 6.3 3.2 5.9 3.5 5.6L5.6 3.5C5.9 3.2 6.3 3.2 6.6 3.4L8 4.4C8.3 4.6 8.7 4.7 9 4.6L9.8 4.4C10.1 4.3 10.4 4.1 10.4 3.8V2H13.6V3.8C13.6 4.1 13.9 4.3 14.2 4.4L15 4.6C15.3 4.7 15.7 4.6 16 4.4L17.4 3.4C17.7 3.2 18.1 3.2 18.4 3.5L20.5 5.6C20.8 5.9 20.8 6.3 20.6 6.6L19.6 8C19.4 8.3 19.3 8.7 19.4 9L19.6 9.8C19.7 10.1 19.9 10.4 20.2 10.4H22V13.6H20.2C19.9 13.6 19.7 13.9 19.6 14.2L19.4 15Z" stroke="currentColor" stroke-width="2"/></svg>